<svg width="336" height="34" viewBox="0 0 336 34" fill="none" xmlns="http://www.w3.org/2000/svg">
<path d="M44.2095 2.19999e-06C45.6673 2.19999e-06 46.8492 1.18184 46.8492 2.63971V3.51977H41.5698V2.63971C41.5698 1.18184 42.7516 2.19999e-06 44.2095 2.19999e-06Z" fill="#202122"/>
<path d="M41.5698 10.712V33.9719C44.4855 33.9719 46.8492 31.6082 46.8492 28.6925V10.712H41.5698Z" fill="#202122"/>
<path d="M36.8233 7.11968C36.8233 5.80899 37.8858 4.74646 39.1965 4.74646H49.2253C50.536 4.74646 51.5986 5.80899 51.5986 7.11968C51.5986 8.43038 50.536 9.49291 49.2253 9.49291H39.1965C37.8858 9.49291 36.8233 8.43038 36.8233 7.11968Z" fill="#BF1522"/>
<path d="M17.292 2.63971C17.292 1.18184 18.4739 0 19.9317 0C21.3896 0 22.5714 1.18184 22.5714 2.63971V10.0615C22.5714 11.5194 21.3896 12.7012 19.9317 12.7012C18.4739 12.7012 17.292 11.5194 17.292 10.0615V2.63971Z" fill="#202122"/>
<path d="M16.3058 29.4746V26.0215C14.5479 27.8799 12.9364 28.4701 12.3504 28.5328C10.3414 28.8342 8.58341 28.0306 7.95557 27.5911C7.24403 27.1935 5.74559 25.7453 5.44423 23.1335C5.14286 20.5217 7.03475 18.4875 8.01836 17.7968C8.89733 17.169 11.2831 16.1896 13.7945 17.2946C16.3058 18.3996 17.1429 21.1034 17.2476 22.3173V29.6002C18.2521 33.317 21.2657 34.0369 22.647 33.9322L22.5214 20.4965C21.8936 17.8596 20.4495 14.9088 16.3058 12.523C12.9908 10.6144 8.89733 11.4348 7.26495 12.0835C5.2768 12.7532 1.07448 15.4111 0.170397 20.6849C-0.733688 25.9587 2.17947 29.7467 3.74907 30.9814C8.92244 35.8032 14.9873 33.7857 17.3731 32.1743C16.5193 31.1195 16.3058 29.935 16.3058 29.4746Z" fill="#BF1522"/>
<path d="M34.5131 29.412C35.1158 33.0283 38.2801 33.9324 39.7869 33.9324V22.1918C39.7869 18.5755 37.6104 15.6205 36.5221 14.595C35.7897 13.737 33.4583 11.9079 29.9926 11.4558C26.527 11.0038 23.6934 12.3139 22.7097 13.0254L22.5842 5.3658H17.3103V12.0209C21.3285 14.0802 22.9609 18.1527 23.2748 19.9316C24.6309 17.4203 27.4394 16.7506 28.6742 16.7297C32.8933 16.9306 34.3247 20.2874 34.5131 21.9407V29.412Z" fill="#202122"/>
<path d="M17.3103 5.61694C17.3103 4.22996 18.4347 3.10559 19.8217 3.10559H20.0728C21.4598 3.10559 22.5842 4.22996 22.5842 5.61694H17.3103Z" fill="#202122"/>
<path d="M73.4713 22.0511H67.6546L66.7222 24.8041H62.7481L68.3872 9.21884H72.7831L78.4222 24.8041H74.4038L73.4713 22.0511ZM72.4945 19.1206L70.563 13.4149L68.6537 19.1206H72.4945Z" fill="#202122"/>
<path d="M83.9348 9.21884V24.8041H80.1384V9.21884H83.9348Z" fill="#202122"/>
<path d="M104.336 9.21884V24.8041H100.54V15.4574L97.054 24.8041H93.9902L90.4824 15.4352V24.8041H86.686V9.21884H91.1707L95.5443 20.0086L99.8735 9.21884H104.336Z" fill="#202122"/>
<path d="M125.269 9.21884V24.8041H121.473V18.3879H115.567V24.8041H111.771V9.21884H115.567V15.3242H121.473V9.21884H125.269Z" fill="#202122"/>
<path d="M131.806 9.21884V24.8041H128.01V9.21884H131.806Z" fill="#202122"/>
<path d="M144.903 14.1475C144.622 13.6295 144.215 13.2373 143.682 12.9708C143.164 12.6896 142.55 12.549 141.839 12.549C140.611 12.549 139.627 12.956 138.887 13.7701C138.146 14.5693 137.776 15.6424 137.776 16.9892C137.776 18.4249 138.161 19.5498 138.931 20.3638C139.715 21.1631 140.788 21.5627 142.15 21.5627C143.083 21.5627 143.867 21.3259 144.503 20.8523C145.155 20.3786 145.628 19.6978 145.924 18.8097H141.107V16.0124H149.365V19.5424C149.084 20.4896 148.603 21.3703 147.922 22.1843C147.256 22.9984 146.405 23.657 145.369 24.1602C144.333 24.6635 143.164 24.9151 141.861 24.9151C140.322 24.9151 138.946 24.582 137.732 23.916C136.533 23.2352 135.593 22.2953 134.913 21.0965C134.246 19.8976 133.913 18.5285 133.913 16.9892C133.913 15.45 134.246 14.0809 134.913 12.882C135.593 11.6684 136.533 10.7285 137.732 10.0625C138.931 9.38165 140.3 9.04123 141.839 9.04123C143.704 9.04123 145.273 9.49266 146.546 10.3955C147.834 11.2984 148.685 12.549 149.099 14.1475H144.903Z" fill="#202122"/>
<path d="M164.967 9.21884V24.8041H161.17V18.3879H155.265V24.8041H151.468V9.21884H155.265V15.3242H161.17V9.21884H164.967Z" fill="#202122"/>
<path d="M182.669 9.37425V11.439H178.562V24.8041H176.031V11.439H171.901V9.37425H182.669Z" fill="#202122"/>
<path d="M187.763 11.4168V15.9458H193.091V18.0105H187.763V22.7394H193.757V24.8041H185.232V9.35205H193.757V11.4168H187.763Z" fill="#202122"/>
<path d="M196.031 17.0559C196.031 15.5462 196.379 14.1919 197.075 12.993C197.785 11.7942 198.74 10.8617 199.939 10.1957C201.152 9.51486 202.477 9.17444 203.913 9.17444C205.555 9.17444 207.013 9.58146 208.286 10.3955C209.574 11.1947 210.506 12.3344 211.083 13.8145H208.042C207.642 13.0004 207.087 12.3936 206.377 11.994C205.666 11.5944 204.845 11.3946 203.913 11.3946C202.891 11.3946 201.981 11.624 201.182 12.0828C200.383 12.5416 199.753 13.2002 199.295 14.0587C198.851 14.9171 198.629 15.9162 198.629 17.0559C198.629 18.1955 198.851 19.1946 199.295 20.053C199.753 20.9115 200.383 21.5775 201.182 22.0511C201.981 22.5099 202.891 22.7394 203.913 22.7394C204.845 22.7394 205.666 22.5395 206.377 22.1399C207.087 21.7403 207.642 21.1335 208.042 20.3194H211.083C210.506 21.7995 209.574 22.9392 208.286 23.7384C207.013 24.5376 205.555 24.9373 203.913 24.9373C202.462 24.9373 201.137 24.6042 199.939 23.9382C198.74 23.2574 197.785 22.3175 197.075 21.1187C196.379 19.9198 196.031 18.5655 196.031 17.0559Z" fill="#202122"/>
<path d="M226.368 9.37425V24.8041H223.837V18.0549H216.577V24.8041H214.046V9.37425H216.577V15.9902H223.837V9.37425H226.368Z" fill="#202122"/>
<path d="M242.376 24.8041H239.845L232.23 13.2817V24.8041H229.7V9.35205H232.23L239.845 20.8523V9.35205H242.376V24.8041Z" fill="#202122"/>
<path d="M252.738 24.9595C251.302 24.9595 249.977 24.6265 248.764 23.9604C247.565 23.2796 246.61 22.3397 245.9 21.1409C245.204 19.9272 244.856 18.5655 244.856 17.0559C244.856 15.5462 245.204 14.1919 245.9 12.993C246.61 11.7942 247.565 10.8617 248.764 10.1957C249.977 9.51486 251.302 9.17444 252.738 9.17444C254.188 9.17444 255.513 9.51486 256.712 10.1957C257.925 10.8617 258.88 11.7942 259.576 12.993C260.271 14.1919 260.619 15.5462 260.619 17.0559C260.619 18.5655 260.271 19.9272 259.576 21.1409C258.88 22.3397 257.925 23.2796 256.712 23.9604C255.513 24.6265 254.188 24.9595 252.738 24.9595ZM252.738 22.7616C253.759 22.7616 254.669 22.5321 255.468 22.0733C256.268 21.5997 256.889 20.9337 257.333 20.0752C257.792 19.202 258.022 18.1955 258.022 17.0559C258.022 15.9162 257.792 14.9171 257.333 14.0587C256.889 13.2002 256.268 12.5416 255.468 12.0828C254.669 11.624 253.759 11.3946 252.738 11.3946C251.716 11.3946 250.806 11.624 250.007 12.0828C249.208 12.5416 248.579 13.2002 248.12 14.0587C247.676 14.9171 247.454 15.9162 247.454 17.0559C247.454 18.1955 247.676 19.202 248.12 20.0752C248.579 20.9337 249.208 21.5997 250.007 22.0733C250.806 22.5321 251.716 22.7616 252.738 22.7616Z" fill="#202122"/>
<path d="M265.641 22.7616H270.858V24.8041H263.11V9.37425H265.641V22.7616Z" fill="#202122"/>
<path d="M280.012 24.9595C278.577 24.9595 277.252 24.6265 276.038 23.9604C274.839 23.2796 273.885 22.3397 273.174 21.1409C272.479 19.9272 272.131 18.5655 272.131 17.0559C272.131 15.5462 272.479 14.1919 273.174 12.993C273.885 11.7942 274.839 10.8617 276.038 10.1957C277.252 9.51486 278.577 9.17444 280.012 9.17444C281.463 9.17444 282.787 9.51486 283.986 10.1957C285.2 10.8617 286.155 11.7942 286.85 12.993C287.546 14.1919 287.894 15.5462 287.894 17.0559C287.894 18.5655 287.546 19.9272 286.85 21.1409C286.155 22.3397 285.2 23.2796 283.986 23.9604C282.787 24.6265 281.463 24.9595 280.012 24.9595ZM280.012 22.7616C281.033 22.7616 281.944 22.5321 282.743 22.0733C283.542 21.5997 284.164 20.9337 284.608 20.0752C285.067 19.202 285.296 18.1955 285.296 17.0559C285.296 15.9162 285.067 14.9171 284.608 14.0587C284.164 13.2002 283.542 12.5416 282.743 12.0828C281.944 11.624 281.033 11.3946 280.012 11.3946C278.991 11.3946 278.081 11.624 277.281 12.0828C276.482 12.5416 275.853 13.2002 275.394 14.0587C274.95 14.9171 274.728 15.9162 274.728 17.0559C274.728 18.1955 274.95 19.202 275.394 20.0752C275.853 20.9337 276.482 21.5997 277.281 22.0733C278.081 22.5321 278.991 22.7616 280.012 22.7616Z" fill="#202122"/>
<path d="M301.551 13.8145C301.152 13.0448 300.597 12.4676 299.886 12.0828C299.176 11.6832 298.354 11.4834 297.422 11.4834C296.401 11.4834 295.49 11.7128 294.691 12.1716C293.892 12.6304 293.263 13.2817 292.804 14.1253C292.36 14.9689 292.138 15.9458 292.138 17.0559C292.138 18.1659 292.36 19.1502 292.804 20.0086C293.263 20.8523 293.892 21.5035 294.691 21.9623C295.49 22.4211 296.401 22.6505 297.422 22.6505C298.798 22.6505 299.916 22.2657 300.774 21.4961C301.633 20.7264 302.158 19.683 302.351 18.3657H296.556V16.3454H305.059V18.3213C304.896 19.5202 304.467 20.6228 303.771 21.6293C303.091 22.6357 302.195 23.4424 301.085 24.0492C299.99 24.6413 298.769 24.9373 297.422 24.9373C295.971 24.9373 294.647 24.6042 293.448 23.9382C292.249 23.2574 291.294 22.3175 290.584 21.1187C289.888 19.9198 289.54 18.5655 289.54 17.0559C289.54 15.5462 289.888 14.1919 290.584 12.993C291.294 11.7942 292.249 10.8617 293.448 10.1957C294.662 9.51486 295.986 9.17444 297.422 9.17444C299.065 9.17444 300.523 9.58146 301.796 10.3955C303.083 11.1947 304.016 12.3344 304.593 13.8145H301.551Z" fill="#202122"/>
<path d="M310.086 9.37425V24.8041H307.555V9.37425H310.086Z" fill="#202122"/>
<path d="M315.94 11.4168V15.9458H321.268V18.0105H315.94V22.7394H321.934V24.8041H313.409V9.35205H321.934V11.4168H315.94Z" fill="#202122"/>
<path d="M330.136 24.9595C329.1 24.9595 328.167 24.7819 327.338 24.4266C326.51 24.0566 325.858 23.5386 325.385 22.8726C324.911 22.2065 324.674 21.4295 324.674 20.5414H327.383C327.442 21.2075 327.701 21.7551 328.16 22.1843C328.634 22.6135 329.292 22.8282 330.136 22.8282C331.009 22.8282 331.69 22.6209 332.178 22.2065C332.667 21.7773 332.911 21.2297 332.911 20.5636C332.911 20.0456 332.756 19.6238 332.445 19.2982C332.149 18.9726 331.771 18.7209 331.312 18.5433C330.868 18.3657 330.247 18.1733 329.448 17.9661C328.441 17.6997 327.62 17.4333 326.983 17.1669C326.362 16.8856 325.829 16.4564 325.385 15.8792C324.941 15.302 324.719 14.5323 324.719 13.5703C324.719 12.6822 324.941 11.9052 325.385 11.2391C325.829 10.5731 326.45 10.0625 327.25 9.70727C328.049 9.35205 328.974 9.17444 330.025 9.17444C331.52 9.17444 332.741 9.55186 333.688 10.3067C334.65 11.0467 335.183 12.068 335.287 13.3705H332.489C332.445 12.808 332.178 12.327 331.69 11.9274C331.201 11.5278 330.558 11.328 329.758 11.328C329.033 11.328 328.441 11.513 327.982 11.883C327.523 12.253 327.294 12.7858 327.294 13.4815C327.294 13.9551 327.435 14.3473 327.716 14.6581C328.012 14.9541 328.382 15.191 328.826 15.3686C329.27 15.5462 329.877 15.7386 330.646 15.9458C331.668 16.227 332.497 16.5082 333.133 16.7894C333.784 17.0707 334.332 17.5073 334.776 18.0993C335.235 18.6765 335.464 19.4536 335.464 20.4304C335.464 21.2149 335.25 21.9549 334.82 22.6505C334.406 23.3462 333.792 23.9086 332.978 24.3378C332.178 24.7523 331.231 24.9595 330.136 24.9595Z" fill="#202122"/>
</svg>
